<svg width="2402" height="3312" xmlns="http://www.w3.org/2000/svg" xmlns:xlink="http://www.w3.org/1999/xlink" xml:space="preserve" overflow="hidden"><g transform="translate(-996 288)"><path d="M2225.24 2400.79 2038.83 2076.42C1510.6 1974.65 1164.85 1463.72 1266.57 935.231 1368.29 406.739 1878.95 60.8115 2407.18 162.581 2935.4 264.35 3281.15 775.278 3179.43 1303.77 3104.35 1693.85 2800.13 1999.29 2410.52 2075.77Z" fill="#FFFFFF" fill-rule="evenodd"/><path d="M2202.24 2364.79 2015.83 2040.42C1487.6 1938.65 1141.85 1427.72 1243.57 899.231 1345.29 370.739 1855.95 24.8114 2384.18 126.581 2912.4 228.35 3258.15 739.278 3156.43 1267.77 3081.35 1657.85 2777.14 1963.29 2387.52 2039.77Z" stroke="#000000" stroke-width="13.75" stroke-miterlimit="8" fill="none" fill-rule="evenodd"/><text font-family="Noto Sans JP,Noto Sans JP_MSFontService,sans-serif" font-weight="400" font-size="1577" transform="matrix(1 0 0 1 1942.53 1702)">!</text></g></svg>