<?xml version="1.0" standalone="no"?>
<!DOCTYPE svg PUBLIC "-//W3C//DTD SVG 20010904//EN"
 "http://www.w3.org/TR/2001/REC-SVG-20010904/DTD/svg10.dtd">
<svg version="1.0" xmlns="http://www.w3.org/2000/svg"
 width="156.000000pt" height="156.000000pt" viewBox="0 0 156.000000 156.000000"
 preserveAspectRatio="xMidYMid meet">

<g transform="translate(0.000000,156.000000) scale(0.100000,-0.100000)"
fill="#000000" stroke="none">
<path d="M402 1404 c-12 -8 -22 -12 -22 -8 0 4 -9 -1 -20 -11 -11 -10 -20 -28
-20 -40 0 -48 40 -129 56 -113 3 3 -2 28 -12 55 -20 56 -14 83 16 83 11 0 20
4 20 9 0 16 37 19 76 5 46 -16 64 -17 64 -4 0 16 -57 40 -97 40 -21 0 -49 -7
-61 -16z"/>
<path d="M1106 1385 c-43 -15 -74 -41 -63 -51 4 -4 27 2 51 14 24 12 59 22 79
22 31 0 38 -5 52 -33 13 -28 14 -43 5 -82 -7 -32 -7 -52 -1 -58 12 -12 16 -4
31 66 8 36 7 53 -2 70 -7 12 -12 26 -13 32 0 14 -46 35 -75 34 -14 0 -43 -6
-64 -14z"/>
<path d="M661 1370 c-62 -23 -86 -39 -73 -52 6 -6 25 -2 49 10 88 45 202 47
325 6 27 -9 52 -13 55 -10 24 24 -122 66 -227 66 -48 -1 -94 -8 -129 -20z"/>
<path d="M389 1198 c-67 -92 -116 -240 -126 -383 -6 -101 9 -222 35 -274 l17
-35 -56 -111 c-55 -111 -130 -300 -144 -363 -5 -24 -3 -32 8 -32 8 0 17 13 20
30 11 53 78 223 134 339 52 109 55 112 73 96 36 -33 41 -5 6 36 -49 57 -61
112 -61 269 0 114 4 147 23 210 27 84 63 159 98 207 13 17 24 36 24 42 0 23
-21 9 -51 -31z"/>
<path d="M1186 1192 c-3 -5 10 -44 29 -88 59 -138 80 -303 55 -435 -10 -50
-53 -151 -82 -191 -17 -24 -2 -35 21 -14 18 16 20 12 69 -96 56 -124 100 -234
126 -315 10 -31 24 -53 32 -53 8 0 14 3 14 6 0 19 -111 297 -155 391 l-54 111
18 39 c36 73 45 126 45 253 -1 106 -5 139 -28 213 -24 80 -70 187 -81 187 -2
0 -6 -4 -9 -8z"/>
<path d="M490 1025 c-16 -20 -9 -49 14 -53 27 -6 48 25 35 49 -12 23 -32 24
-49 4z"/>
<path d="M1015 1029 c-4 -5 -4 -21 -1 -35 7 -28 50 -34 60 -8 14 35 -40 75
-59 43z"/>
<path d="M695 910 c-3 -6 8 -18 25 -28 l30 -17 -2 -115 -3 -115 -37 0 c-48 0
-56 -10 -24 -30 22 -15 29 -15 53 -3 23 12 34 12 59 2 24 -10 36 -10 54 -1 33
17 25 33 -14 29 -19 -2 -37 2 -41 8 -3 6 -7 59 -7 118 l0 106 31 15 c17 8 31
21 31 28 0 17 -14 16 -50 -2 -27 -14 -33 -14 -60 0 -34 18 -37 18 -45 5z"/>
<path d="M616 372 c-12 -12 -5 -20 32 -35 60 -24 125 -30 188 -17 72 15 104
29 104 47 0 17 1 17 -73 -8 -68 -23 -148 -21 -211 5 -19 8 -37 12 -40 8z"/>
</g>
</svg>
